<svg xmlns="http://www.w3.org/2000/svg" width="300" height="304" viewBox="0 0 300 304">
<g>
<path d="M 169.54 298.45 C157.16,301.67 141.09,299.64 132.18,293.73 C130.16,292.39 123.89,286.97 118.25,281.69 C100.57,265.15 93.19,260.67 75.82,255.95 C56.94,250.82 52.04,247.87 47.45,238.87 C45.48,235.02 44.49,234.13 41.52,233.57 C37.44,232.80 31.61,228.09 29.35,223.72 C21.55,208.63 22.35,188.50 31.50,169.17 C33.41,165.14 35.87,160.59 36.95,159.06 L 38.93 156.29 L 31.31 155.64 C27.13,155.29 21.38,155.00 18.55,155.00 C12.62,155.00 11.00,153.83 11.00,149.54 C11.00,147.32 10.38,146.20 8.75,145.49 L 6.50 144.50 L 6.50 62.50 L 22.50 61.89 C31.30,61.55 41.05,61.21 44.16,61.14 L 49.83 61.00 L 53.48 54.46 C66.89,30.49 93.41,19.64 113.01,30.09 C116.21,31.79 119.83,34.26 121.06,35.57 L 123.30 37.95 L 127.65 30.52 C133.80,20.01 140.87,13.15 150.40,8.45 C157.92,4.74 158.78,4.54 167.92,4.52 C176.78,4.50 178.06,4.76 184.17,7.76 C194.41,12.80 201.14,20.68 208.50,36.26 C213.00,45.77 214.88,48.81 216.00,48.39 C216.82,48.08 221.09,46.90 225.47,45.78 C247.00,40.28 263.42,48.30 275.28,70.12 C284.79,87.63 285.32,103.66 276.96,120.41 L 274.00 126.31 L 279.75 131.55 C284.24,135.63 286.70,139.13 290.98,147.46 C296.40,158.03 296.46,158.25 296.83,168.32 C297.43,184.87 292.52,198.93 281.16,213.20 C274.33,221.78 269.92,225.80 261.03,231.54 C245.54,241.53 229.93,244.04 211.73,239.47 L 209.00 238.78 L 208.99 247.14 C208.97,257.15 207.39,263.60 202.87,272.10 C196.34,284.40 182.99,294.94 169.54,298.45 ZM 140.00 287.57 C146.31,289.32 157.51,289.28 164.47,287.47 C180.70,283.24 195.05,269.55 200.59,253.00 C202.82,246.33 203.13,231.73 201.11,228.10 C199.84,225.82 199.89,225.74 202.14,226.46 C222.52,232.97 233.77,232.35 250.39,223.77 C256.70,220.51 260.60,217.47 268.00,210.04 C278.16,199.83 282.83,192.91 286.64,182.40 C291.92,167.87 291.71,154.94 286.01,143.36 C282.33,135.90 276.86,130.77 268.34,126.78 L 261.93 123.78 L 264.48 120.43 C268.81,114.77 273.77,103.25 275.10,95.83 C278.44,77.15 269.78,58.28 254.28,50.43 C248.84,47.67 247.79,47.50 236.50,47.50 C225.22,47.50 224.06,47.69 217.19,50.68 C212.27,52.82 209.76,53.47 209.52,52.68 C209.32,52.03 208.87,49.70 208.53,47.50 C205.14,25.84 190.12,8.76 172.50,6.55 C155.86,4.45 136.59,16.66 127.81,34.87 C126.05,38.51 124.51,41.65 124.39,41.83 C124.27,42.02 122.28,40.28 119.98,37.98 C113.82,31.82 106.13,28.60 97.50,28.58 C79.74,28.54 63.32,39.73 54.40,57.96 L 51.50 63.89 L 8.00 64.00 L 8.00 78.34 C8.00,86.22 8.30,104.22 8.66,118.34 L 9.32 144.00 L 19.50 144.00 C25.10,144.00 35.10,144.29 41.73,144.65 L 53.77 145.29 L 49.64 148.44 C41.35,154.77 34.98,164.97 29.95,180.00 C22.54,202.10 26.11,219.51 38.74,222.94 C41.88,223.79 42.96,224.84 45.29,229.32 C49.61,237.63 55.01,240.70 73.88,245.55 C89.76,249.63 98.44,255.13 118.42,273.80 C127.69,282.46 132.37,285.45 140.00,287.57 ZM 160.50 270.92 C153.90,273.38 143.60,273.59 137.35,271.37 C134.79,270.46 128.84,266.03 121.85,259.82 C102.80,242.90 95.88,239.02 75.00,233.56 C59.99,229.64 55.72,227.59 50.27,221.67 C37.92,208.28 35.94,190.24 44.97,173.37 C47.07,169.45 49.09,164.86 49.46,163.17 C50.86,156.81 57.11,152.00 63.97,152.00 C66.94,152.00 67.00,151.89 67.00,147.06 C67.00,143.08 67.44,141.81 69.22,140.56 C72.17,138.49 82.31,138.49 85.85,140.54 C88.37,142.01 88.95,141.88 97.50,138.06 C102.45,135.84 105.79,134.02 104.92,134.02 C104.05,134.01 101.13,132.88 98.42,131.51 C93.67,129.10 93.45,129.08 92.00,130.86 C89.66,133.74 81.64,137.08 75.58,137.70 C70.90,138.19 69.23,137.86 64.43,135.51 C52.76,129.80 49.21,124.15 50.55,113.42 C50.93,110.44 51.00,108.00 50.72,108.00 C50.45,108.00 48.26,108.89 45.86,109.98 C43.46,111.07 40.04,111.97 38.25,111.98 L 35.00 112.00 L 35.00 120.85 C35.00,132.31 34.34,133.00 23.37,133.00 C18.50,133.00 14.93,132.53 14.20,131.80 C13.32,130.92 13.00,122.65 13.00,100.84 C13.00,71.24 13.01,71.06 15.19,69.90 C16.69,69.10 21.35,68.89 29.98,69.24 C44.53,69.83 49.70,71.69 53.18,77.57 L 55.22 81.04 L 58.16 74.83 C64.54,61.34 74.64,50.28 84.66,45.81 C91.80,42.63 100.60,42.81 105.79,46.25 C113.09,51.07 116.85,59.74 117.72,73.75 L 118.29 83.00 L 126.74 83.00 L 127.24 72.75 C128.27,51.59 139.61,31.85 155.23,24.05 C162.78,20.27 171.80,19.84 177.91,22.96 C189.19,28.71 195.01,45.31 192.04,63.25 C191.29,67.79 190.49,74.58 190.25,78.34 L 189.83 85.17 L 197.82 77.18 C204.09,70.91 207.70,68.26 214.58,64.85 C223.20,60.57 223.52,60.50 233.59,60.50 C243.38,60.50 244.02,60.63 248.15,63.54 C256.39,69.33 258.43,74.26 259.40,90.75 C259.94,99.78 259.80,101.20 258.21,102.79 C256.47,104.53 256.47,104.71 258.20,107.55 C260.89,111.99 260.66,121.74 257.75,126.01 C254.16,131.29 251.11,132.97 243.99,133.62 C239.45,134.03 236.20,133.75 233.17,132.69 C229.05,131.25 228.60,131.29 223.57,133.60 C212.77,138.54 203.19,138.78 193.24,134.35 C190.12,132.97 178.45,132.30 177.24,133.45 C176.95,133.71 180.73,141.63 184.57,148.84 L 186.88 153.18 L 198.52 153.22 L 210.16 153.25 L 213.83 149.78 C227.93,136.45 247.45,131.27 260.58,137.38 C266.61,140.19 269.17,143.20 272.06,150.83 C275.82,160.77 273.35,173.97 265.48,185.90 C262.36,190.63 262.00,191.81 262.55,195.49 C263.40,201.17 261.52,203.00 254.83,203.00 C251.54,203.00 248.90,203.64 247.15,204.87 C241.86,208.61 233.62,212.18 227.24,213.52 C216.60,215.75 206.05,212.92 199.56,206.09 C197.95,204.39 195.91,203.00 195.04,203.00 C194.16,203.00 192.44,202.30 191.21,201.44 C189.19,200.02 188.84,200.02 187.42,201.44 C186.56,202.30 184.76,203.00 183.43,203.00 C181.28,203.00 181.00,203.44 181.00,206.87 C181.00,209.00 181.63,214.51 182.41,219.12 C184.97,234.41 185.14,237.01 183.96,242.78 C183.32,245.92 181.63,250.67 180.20,253.33 C176.54,260.13 167.30,268.37 160.50,270.92 ZM 148.00 144.00 L 148.00 198.00 L 160.00 198.00 L 160.00 177.00 L 163.46 177.00 C167.81,177.00 169.00,179.00 169.00,186.31 C169.00,189.30 169.28,193.16 169.62,194.88 L 170.25 198.00 L 177.16 198.00 C183.46,198.00 183.99,197.84 183.12,196.23 C182.60,195.26 181.85,190.73 181.45,186.17 C180.92,180.03 180.14,177.01 178.45,174.52 C176.22,171.24 176.21,171.12 178.05,169.46 C182.47,165.46 183.13,154.35 179.27,149.14 C176.41,145.28 171.85,144.12 159.25,144.06 ZM 58.32 197.86 C61.26,199.36 67.71,198.57 70.08,196.43 C71.81,194.86 72.45,195.12 72.12,197.25 C72.05,197.66 74.47,198.00 77.50,198.00 L 83.00 198.00 L 83.00 144.00 L 72.00 144.00 L 72.00 152.00 C72.00,159.97 71.36,161.35 69.00,158.50 C67.61,156.82 62.38,156.52 58.72,157.92 C54.73,159.43 53.50,164.15 53.50,178.00 C53.50,191.49 54.59,195.97 58.32,197.86 ZM 159.72 126.99 C163.29,129.80 168.17,129.57 171.92,126.41 C174.88,123.92 175.00,123.90 175.00,125.91 C175.00,127.75 175.60,128.00 180.00,128.00 L 185.00 128.00 L 185.00 74.00 L 174.00 74.00 L 174.00 90.11 L 171.78 88.56 C168.47,86.24 162.60,86.57 159.55,89.25 C153.29,94.76 153.40,122.03 159.72,126.99 ZM 17.00 74.00 L 17.00 128.00 L 28.93 128.00 L 29.50 107.50 L 36.00 106.93 C39.58,106.62 43.55,105.72 44.83,104.93 C48.62,102.61 51.00,96.84 51.00,89.99 C51.00,77.43 46.20,74.06 28.25,74.02 ZM 201.00 128.30 C201.82,128.60 204.66,128.88 207.30,128.92 C218.00,129.10 221.96,123.45 221.96,108.00 C221.96,92.42 218.09,87.00 206.95,87.00 C197.05,87.00 192.98,92.02 192.20,105.15 C191.47,117.59 194.66,125.99 201.00,128.30 ZM 231.33 197.54 C235.65,199.42 237.93,199.33 242.29,197.11 C245.22,195.61 246.00,195.51 246.00,196.61 C246.00,197.64 247.50,198.00 251.75,198.00 L 257.50 198.00 L 257.25 185.25 C256.72,158.54 256.14,157.50 241.84,157.50 C232.94,157.50 232.80,157.54 229.92,160.77 C228.08,162.83 227.00,165.13 227.00,167.02 C227.00,169.93 227.11,170.00 232.02,170.00 C236.50,170.00 237.16,169.72 238.03,167.43 C238.80,165.40 239.57,164.93 241.75,165.18 C243.93,165.43 244.50,166.02 244.50,168.00 C244.50,170.12 243.30,171.10 236.50,174.50 C227.67,178.92 226.04,180.98 226.01,187.82 C226.00,193.32 227.36,195.82 231.33,197.54 ZM 59.89 127.50 C63.57,129.50 67.92,129.33 72.26,127.00 C75.37,125.34 76.00,125.25 76.00,126.50 C76.00,127.66 77.32,128.00 81.87,128.00 L 87.73 128.00 L 86.91 123.75 C86.46,121.41 86.07,114.01 86.04,107.30 C86.02,100.06 85.51,94.03 84.81,92.47 C83.06,88.65 79.04,87.00 71.45,87.00 C63.67,87.00 59.78,88.85 57.52,93.61 C54.86,99.20 55.35,100.00 61.39,100.00 C66.24,100.00 66.84,99.76 67.38,97.62 C68.42,93.46 75.00,93.73 75.00,97.93 C75.00,100.28 73.70,101.27 67.00,104.04 C63.97,105.28 60.23,107.52 58.68,109.00 C53.44,113.98 54.12,124.37 59.89,127.50 ZM 94.23 197.00 C98.37,199.52 101.55,199.52 106.26,197.00 C109.37,195.34 110.00,195.25 110.00,196.50 C110.00,197.67 111.34,198.00 116.11,198.00 C121.55,198.00 122.13,197.81 121.43,196.25 C121.00,195.29 120.39,187.30 120.07,178.50 C119.76,169.70 119.11,161.89 118.63,161.15 C116.06,157.17 102.71,155.62 96.48,158.58 C93.48,160.00 90.00,165.60 90.00,169.02 C90.00,169.56 92.37,170.00 95.26,170.00 C99.76,170.00 100.67,169.67 101.51,167.75 C102.22,166.14 103.35,165.50 105.50,165.50 C108.03,165.50 108.50,165.89 108.50,168.00 C108.50,170.13 107.36,171.05 100.80,174.20 C92.68,178.11 90.25,180.66 89.37,186.14 C88.63,190.79 90.35,194.64 94.23,197.00 ZM 122.26 127.47 C125.25,129.57 129.86,129.38 133.75,127.01 C136.40,125.39 137.00,125.30 137.00,126.51 C137.00,127.63 138.24,128.00 142.00,128.00 L 147.00 128.00 L 147.00 88.00 L 136.05 88.00 L 135.78 103.14 C135.53,116.50 135.29,118.42 133.69,119.39 C132.24,120.28 131.59,120.11 130.44,118.56 C129.34,117.08 129.00,113.21 129.00,102.31 L 129.00 88.00 L 118.00 88.00 L 118.01 103.25 C118.01,119.91 118.93,125.14 122.26,127.47 ZM 194.36 197.83 C197.70,199.45 201.21,199.17 204.75,197.01 C207.40,195.39 208.00,195.30 208.00,196.51 C208.00,197.65 209.30,198.00 213.50,198.00 L 219.00 198.00 L 219.00 158.00 L 208.00 158.00 L 208.00 171.89 C208.00,184.01 207.76,186.08 206.11,188.11 C204.51,190.09 203.99,190.24 202.64,189.12 C201.35,188.04 201.00,185.08 200.78,173.15 L 200.50 158.50 L 190.00 157.90 L 190.00 174.90 C190.00,192.74 190.62,196.02 194.36,197.83 ZM 232.76 127.49 C234.68,128.57 237.56,128.94 242.37,128.73 C248.67,128.45 249.47,128.15 252.12,125.19 C254.52,122.51 255.00,121.09 255.00,116.71 C255.00,110.03 253.38,107.73 246.12,104.06 C242.96,102.47 239.81,100.47 239.11,99.63 C237.12,97.23 238.16,94.54 241.22,94.19 C243.42,93.93 244.05,94.36 244.57,96.44 C245.15,98.75 245.69,99.00 250.11,99.00 C253.86,99.00 255.00,98.64 255.00,97.45 C255.00,95.00 252.22,90.27 249.78,88.56 C247.13,86.70 237.29,86.45 233.56,88.15 C225.74,91.72 225.42,104.56 233.05,108.77 C242.57,114.02 245.13,116.07 244.82,118.17 C244.31,121.60 241.50,122.76 239.06,120.55 C237.93,119.53 237.00,117.86 237.00,116.85 C237.00,115.30 236.19,115.00 232.00,115.00 C227.31,115.00 227.00,115.16 227.00,117.55 C227.00,121.23 229.60,125.71 232.76,127.49 ZM 101.02 127.72 C103.67,129.06 108.82,129.39 111.42,128.39 C112.48,127.99 113.00,126.53 113.00,123.96 C113.00,120.53 112.72,120.10 110.25,119.82 L 107.50 119.50 L 107.22 107.75 L 106.94 96.00 L 109.97 96.00 C112.84,96.00 113.00,95.79 113.00,92.00 C113.00,88.22 112.83,88.00 110.00,88.00 L 107.00 88.00 L 107.00 76.00 L 96.00 76.00 L 96.00 82.00 C96.00,87.73 95.89,88.00 93.50,88.00 C91.25,88.00 91.00,88.40 91.00,92.00 C91.00,95.60 91.25,96.00 93.50,96.00 L 96.00 96.00 L 96.01 108.75 C96.03,122.52 96.84,125.60 101.02,127.72 ZM 209.43 119.43 C207.62,121.24 207.05,121.32 205.05,120.05 C203.21,118.89 202.32,101.80 203.88,97.75 C205.14,94.50 208.43,94.06 209.96,96.93 C210.53,98.00 211.00,103.14 211.00,108.36 C211.00,115.66 210.64,118.22 209.43,119.43 ZM 173.02 117.43 C172.00,120.12 168.70,120.94 167.40,118.84 C166.04,116.64 165.73,103.34 166.95,99.64 C168.31,95.55 171.24,94.71 172.96,97.93 C174.28,100.38 174.32,114.04 173.02,117.43 ZM 70.71 186.99 C68.93,190.51 66.24,190.75 65.00,187.51 C63.89,184.57 63.82,172.88 64.89,169.00 C65.89,165.38 69.70,165.07 71.00,168.50 C72.40,172.19 72.22,184.01 70.71,186.99 ZM 37.43 95.43 C36.56,96.29 34.31,97.00 32.43,97.00 L 29.00 97.00 L 29.00 84.00 L 32.80 84.00 C34.89,84.00 37.14,84.54 37.80,85.20 C39.52,86.92 39.28,93.58 37.43,95.43 ZM 167.17 165.35 C166.17,166.26 164.14,167.00 162.67,167.00 C160.03,167.00 160.00,166.92 160.00,160.00 L 160.00 153.00 L 162.93 153.00 C164.54,153.00 166.56,153.71 167.43,154.57 C169.62,156.76 169.46,163.27 167.17,165.35 ZM 73.00 119.00 C70.59,121.41 69.63,121.49 67.57,119.43 C64.49,116.34 65.88,112.61 71.12,109.94 L 75.00 107.96 L 75.00 112.48 C75.00,115.67 74.41,117.59 73.00,119.00 ZM 107.96 188.07 C106.97,189.93 103.05,190.71 101.67,189.33 C101.30,188.97 101.00,187.42 101.00,185.91 C101.00,183.08 104.92,179.00 107.63,179.00 C109.28,179.00 109.51,185.18 107.96,188.07 ZM 243.96 188.07 C242.97,189.93 239.05,190.71 237.67,189.33 C237.30,188.97 237.00,187.42 237.00,185.91 C237.00,183.08 240.92,179.00 243.63,179.00 C245.28,179.00 245.51,185.18 243.96,188.07 Z" fill="rgb(5,6,6)"/>
<path d="M 148.00 144.00 L 159.25 144.06 C171.85,144.12 176.41,145.28 179.27,149.14 C183.13,154.35 182.47,165.46 178.05,169.46 C176.21,171.12 176.22,171.24 178.45,174.52 C180.14,177.01 180.92,180.03 181.45,186.17 C181.85,190.73 182.60,195.26 183.12,196.23 C183.99,197.84 183.46,198.00 177.16,198.00 L 170.25 198.00 L 169.62 194.88 C169.28,193.16 169.00,189.30 169.00,186.31 C169.00,179.00 167.81,177.00 163.46,177.00 L 160.00 177.00 L 160.00 198.00 L 148.00 198.00 ZM 58.32 197.86 C54.59,195.97 53.50,191.49 53.50,178.00 C53.50,164.15 54.73,159.43 58.72,157.92 C62.38,156.52 67.61,156.82 69.00,158.50 C71.36,161.35 72.00,159.97 72.00,152.00 L 72.00 144.00 L 83.00 144.00 L 83.00 198.00 L 77.50 198.00 C74.47,198.00 72.05,197.66 72.12,197.25 C72.45,195.12 71.81,194.86 70.08,196.43 C67.71,198.57 61.26,199.36 58.32,197.86 ZM 231.33 197.54 C227.36,195.82 226.00,193.32 226.01,187.82 C226.04,180.98 227.67,178.92 236.50,174.50 C243.30,171.10 244.50,170.12 244.50,168.00 C244.50,166.02 243.93,165.43 241.75,165.18 C239.57,164.93 238.80,165.40 238.03,167.43 C237.16,169.72 236.50,170.00 232.02,170.00 C227.11,170.00 227.00,169.93 227.00,167.02 C227.00,165.13 228.08,162.83 229.92,160.77 C232.80,157.54 232.94,157.50 241.84,157.50 C256.14,157.50 256.72,158.54 257.25,185.25 L 257.50 198.00 L 251.75 198.00 C247.50,198.00 246.00,197.64 246.00,196.61 C246.00,195.51 245.22,195.61 242.29,197.11 C237.93,199.33 235.65,199.42 231.33,197.54 ZM 94.23 197.00 C90.35,194.64 88.63,190.79 89.37,186.14 C90.25,180.66 92.68,178.11 100.80,174.20 C107.36,171.05 108.50,170.13 108.50,168.00 C108.50,165.89 108.03,165.50 105.50,165.50 C103.35,165.50 102.22,166.14 101.51,167.75 C100.67,169.67 99.76,170.00 95.26,170.00 C92.37,170.00 90.00,169.56 90.00,169.02 C90.00,165.60 93.48,160.00 96.48,158.58 C102.71,155.62 116.06,157.17 118.63,161.15 C119.11,161.89 119.76,169.70 120.07,178.50 C120.39,187.30 121.00,195.29 121.43,196.25 C122.13,197.81 121.55,198.00 116.11,198.00 C111.34,198.00 110.00,197.67 110.00,196.50 C110.00,195.25 109.37,195.34 106.26,197.00 C101.55,199.52 98.37,199.52 94.23,197.00 ZM 194.36 197.83 C190.62,196.02 190.00,192.74 190.00,174.90 L 190.00 157.90 L 200.50 158.50 L 200.78 173.15 C201.00,185.08 201.35,188.04 202.64,189.12 C203.99,190.24 204.51,190.09 206.11,188.11 C207.76,186.08 208.00,184.01 208.00,171.89 L 208.00 158.00 L 219.00 158.00 L 219.00 198.00 L 213.50 198.00 C209.30,198.00 208.00,197.65 208.00,196.51 C208.00,195.30 207.40,195.39 204.75,197.01 C201.21,199.17 197.70,199.45 194.36,197.83 ZM 70.71 186.99 C72.22,184.01 72.40,172.19 71.00,168.50 C69.70,165.07 65.89,165.38 64.89,169.00 C63.82,172.88 63.89,184.57 65.00,187.51 C66.24,190.75 68.93,190.51 70.71,186.99 ZM 167.17 165.35 C169.46,163.27 169.62,156.76 167.43,154.57 C166.56,153.71 164.54,153.00 162.93,153.00 L 160.00 153.00 L 160.00 160.00 C160.00,166.92 160.03,167.00 162.67,167.00 C164.14,167.00 166.17,166.26 167.17,165.35 ZM 107.96 188.07 C109.51,185.18 109.28,179.00 107.63,179.00 C104.92,179.00 101.00,183.08 101.00,185.91 C101.00,187.42 101.30,188.97 101.67,189.33 C103.05,190.71 106.97,189.93 107.96,188.07 ZM 243.96 188.07 C245.51,185.18 245.28,179.00 243.63,179.00 C240.92,179.00 237.00,183.08 237.00,185.91 C237.00,187.42 237.30,188.97 237.67,189.33 C239.05,190.71 242.97,189.93 243.96,188.07 ZM 259.86 119.60 C259.67,121.68 259.25,123.54 258.60,124.80 C256.80,128.24 253.20,131.61 250.00,132.83 L 247.50 133.78 L 250.50 134.44 C252.34,134.84 253.98,135.23 255.46,135.63 C243.54,132.86 228.30,137.43 216.26,147.60 C223.12,141.58 228.44,138.86 238.50,135.91 C244.50,134.14 244.50,134.14 240.50,134.03 C239.29,133.99 237.67,133.77 236.11,133.46 C238.36,133.86 240.87,133.90 243.99,133.62 C251.11,132.97 254.16,131.29 257.75,126.01 C258.82,124.44 259.53,122.12 259.86,119.60 ZM 272.22 171.48 C271.03,176.24 268.89,180.73 265.48,185.90 C268.58,181.20 270.84,176.30 272.22,171.48 ZM 184.79 149.27 L 184.57 148.84 C182.37,144.72 180.20,140.36 178.79,137.34 C179.14,138.05 179.52,138.82 179.93,139.63 C181.53,142.75 183.68,147.00 184.79,149.27 ZM 259.82 137.04 C261.82,137.83 263.43,138.72 264.81,139.81 C263.61,138.93 262.22,138.15 260.58,137.38 C260.33,137.27 260.07,137.15 259.82,137.04 ZM 234.00 132.96 C233.52,132.83 233.07,132.69 232.67,132.55 C229.15,131.29 228.43,131.37 223.60,133.58 C228.60,131.29 229.06,131.25 233.17,132.69 C233.45,132.79 233.72,132.88 234.00,132.96 ZM 177.23 133.46 C177.23,133.45 177.23,133.45 177.24,133.45 C177.84,132.87 181.07,132.76 184.54,132.95 C181.10,132.76 177.90,132.89 177.23,133.46 ZM 210.21 153.20 L 210.16 153.25 L 209.35 153.25 L 210.17 153.24 ZM 272.52 152.15 C272.60,152.39 272.67,152.62 272.73,152.86 C272.66,152.62 272.59,152.39 272.52,152.15 Z" fill="rgb(27,154,206)"/>
<path d="M 159.72 126.99 C153.40,122.03 153.29,94.76 159.55,89.25 C162.60,86.57 168.47,86.24 171.78,88.56 L 174.00 90.11 L 174.00 74.00 L 185.00 74.00 L 185.00 128.00 L 180.00 128.00 C175.60,128.00 175.00,127.75 175.00,125.91 C175.00,123.90 174.88,123.92 171.92,126.41 C168.17,129.57 163.29,129.80 159.72,126.99 ZM 17.00 74.00 L 28.25 74.02 C46.20,74.06 51.00,77.43 51.00,89.99 C51.00,96.84 48.62,102.61 44.83,104.93 C43.55,105.72 39.58,106.62 36.00,106.93 L 29.50 107.50 L 28.93 128.00 L 17.00 128.00 ZM 201.00 128.30 C194.66,125.99 191.47,117.59 192.20,105.15 C192.98,92.02 197.05,87.00 206.95,87.00 C218.09,87.00 221.96,92.42 221.96,108.00 C221.96,123.45 218.00,129.10 207.30,128.92 C204.66,128.88 201.82,128.60 201.00,128.30 ZM 59.89 127.50 C54.12,124.37 53.44,113.98 58.68,109.00 C60.23,107.52 63.97,105.28 67.00,104.04 C73.70,101.27 75.00,100.28 75.00,97.93 C75.00,93.73 68.42,93.46 67.38,97.62 C66.84,99.76 66.24,100.00 61.39,100.00 C55.35,100.00 54.86,99.20 57.52,93.61 C59.78,88.85 63.67,87.00 71.45,87.00 C79.04,87.00 83.06,88.65 84.81,92.47 C85.51,94.03 86.02,100.06 86.04,107.30 C86.07,114.01 86.46,121.41 86.91,123.75 L 87.73 128.00 L 81.87 128.00 C77.32,128.00 76.00,127.66 76.00,126.50 C76.00,125.25 75.37,125.34 72.26,127.00 C67.92,129.33 63.57,129.50 59.89,127.50 ZM 122.26 127.47 C118.93,125.14 118.01,119.91 118.01,103.25 L 118.00 88.00 L 129.00 88.00 L 129.00 102.31 C129.00,113.21 129.34,117.08 130.44,118.56 C131.59,120.11 132.24,120.28 133.69,119.39 C135.29,118.42 135.53,116.50 135.78,103.14 L 136.05 88.00 L 147.00 88.00 L 147.00 128.00 L 142.00 128.00 C138.24,128.00 137.00,127.63 137.00,126.51 C137.00,125.30 136.40,125.39 133.75,127.01 C129.86,129.38 125.25,129.57 122.26,127.47 ZM 232.76 127.49 C229.60,125.71 227.00,121.23 227.00,117.55 C227.00,115.16 227.31,115.00 232.00,115.00 C236.19,115.00 237.00,115.30 237.00,116.85 C237.00,117.86 237.93,119.53 239.06,120.55 C241.50,122.76 244.31,121.60 244.82,118.17 C245.13,116.07 242.57,114.02 233.05,108.77 C225.42,104.56 225.74,91.72 233.56,88.15 C237.29,86.45 247.13,86.70 249.78,88.56 C252.22,90.27 255.00,95.00 255.00,97.45 C255.00,98.64 253.86,99.00 250.11,99.00 C245.69,99.00 245.15,98.75 244.57,96.44 C244.05,94.36 243.42,93.93 241.22,94.19 C238.16,94.54 237.12,97.23 239.11,99.63 C239.81,100.47 242.96,102.47 246.12,104.06 C253.38,107.73 255.00,110.03 255.00,116.71 C255.00,121.09 254.52,122.51 252.12,125.19 C249.47,128.15 248.67,128.45 242.37,128.73 C237.56,128.94 234.68,128.57 232.76,127.49 ZM 101.02 127.72 C96.84,125.60 96.03,122.52 96.01,108.75 L 96.00 96.00 L 93.50 96.00 C91.25,96.00 91.00,95.60 91.00,92.00 C91.00,88.40 91.25,88.00 93.50,88.00 C95.89,88.00 96.00,87.73 96.00,82.00 L 96.00 76.00 L 107.00 76.00 L 107.00 88.00 L 110.00 88.00 C112.83,88.00 113.00,88.22 113.00,92.00 C113.00,95.79 112.84,96.00 109.97,96.00 L 106.94 96.00 L 107.22 107.75 L 107.50 119.50 L 110.25 119.82 C112.72,120.10 113.00,120.53 113.00,123.96 C113.00,126.53 112.48,127.99 111.42,128.39 C108.82,129.39 103.67,129.06 101.02,127.72 ZM 209.43 119.43 C210.64,118.22 211.00,115.66 211.00,108.36 C211.00,103.14 210.53,98.00 209.96,96.93 C208.43,94.06 205.14,94.50 203.88,97.75 C202.32,101.80 203.21,118.89 205.05,120.05 C207.05,121.32 207.62,121.24 209.43,119.43 ZM 173.02 117.43 C174.32,114.04 174.28,100.38 172.96,97.93 C171.24,94.71 168.31,95.55 166.95,99.64 C165.73,103.34 166.04,116.64 167.40,118.84 C168.70,120.94 172.00,120.12 173.02,117.43 ZM 37.43 95.43 C39.28,93.58 39.52,86.92 37.80,85.20 C37.14,84.54 34.89,84.00 32.80,84.00 L 29.00 84.00 L 29.00 97.00 L 32.43 97.00 C34.31,97.00 36.56,96.29 37.43,95.43 ZM 73.00 119.00 C74.41,117.59 75.00,115.67 75.00,112.48 L 75.00 107.96 L 71.12 109.94 C65.88,112.61 64.49,116.34 67.57,119.43 C69.63,121.49 70.59,121.41 73.00,119.00 Z" fill="rgb(235,191,34)"/>
<path d="M 0.00 152.00 L 0.00 0.00 L 150.00 0.00 L 300.00 0.00 L 300.00 152.00 L 300.00 304.00 L 150.00 304.00 L 0.00 304.00 L 0.00 152.00 ZM 169.54 298.45 C182.99,294.94 196.34,284.40 202.87,272.10 C207.39,263.60 208.97,257.15 208.99,247.14 L 209.00 238.78 L 211.73 239.47 C229.93,244.04 245.54,241.53 261.03,231.54 C269.92,225.80 274.33,221.78 281.16,213.20 C292.52,198.93 297.43,184.87 296.83,168.32 C296.46,158.25 296.40,158.03 290.98,147.46 C286.70,139.13 284.24,135.63 279.75,131.55 L 274.00 126.31 L 276.96 120.41 C285.32,103.66 284.79,87.63 275.28,70.12 C263.42,48.30 247.00,40.28 225.47,45.78 C221.09,46.90 216.82,48.08 216.00,48.39 C214.88,48.81 213.00,45.77 208.50,36.26 C201.14,20.68 194.41,12.80 184.17,7.76 C178.06,4.76 176.78,4.50 167.92,4.52 C158.78,4.54 157.92,4.74 150.40,8.45 C140.87,13.15 133.80,20.01 127.65,30.52 L 123.30 37.95 L 121.06 35.57 C119.83,34.26 116.21,31.79 113.01,30.09 C93.41,19.64 66.89,30.49 53.48,54.46 L 49.83 61.00 L 44.16 61.14 C41.05,61.21 31.30,61.55 22.50,61.89 L 6.50 62.50 L 6.50 103.50 L 6.50 144.50 L 8.75 145.49 C10.38,146.20 11.00,147.32 11.00,149.54 C11.00,153.83 12.62,155.00 18.55,155.00 C21.38,155.00 27.13,155.29 31.31,155.64 L 38.93 156.29 L 36.95 159.06 C35.87,160.59 33.41,165.14 31.50,169.17 C22.35,188.50 21.55,208.63 29.35,223.72 C31.61,228.09 37.44,232.80 41.52,233.57 C44.49,234.13 45.48,235.02 47.45,238.87 C52.04,247.87 56.94,250.82 75.82,255.95 C93.19,260.67 100.57,265.15 118.25,281.69 C123.89,286.97 130.16,292.39 132.18,293.73 C141.09,299.64 157.16,301.67 169.54,298.45 ZM 140.00 287.57 C132.37,285.45 127.69,282.46 118.42,273.80 C98.44,255.13 89.76,249.63 73.88,245.55 C55.01,240.70 49.61,237.63 45.29,229.32 C42.96,224.84 41.88,223.79 38.74,222.94 C26.11,219.51 22.54,202.10 29.95,180.00 C34.98,164.97 41.35,154.77 49.64,148.44 L 53.77 145.29 L 41.73 144.65 C35.10,144.29 25.10,144.00 19.50,144.00 L 9.32 144.00 L 8.66 118.34 C8.30,104.22 8.00,86.22 8.00,78.34 L 8.00 64.00 L 29.75 63.95 L 51.50 63.89 L 54.40 57.96 C63.32,39.73 79.74,28.54 97.50,28.58 C106.13,28.60 113.82,31.82 119.98,37.98 C122.28,40.28 124.27,42.02 124.39,41.83 C124.51,41.65 126.05,38.51 127.81,34.87 C136.59,16.66 155.86,4.45 172.50,6.55 C190.12,8.76 205.14,25.84 208.53,47.50 C208.87,49.70 209.32,52.03 209.52,52.68 C209.76,53.47 212.27,52.82 217.19,50.68 C224.06,47.69 225.22,47.50 236.50,47.50 C247.79,47.50 248.84,47.67 254.28,50.43 C269.78,58.28 278.44,77.15 275.10,95.83 C273.77,103.25 268.81,114.77 264.48,120.43 L 261.93 123.78 L 268.34 126.78 C276.86,130.77 282.33,135.90 286.01,143.36 C291.71,154.94 291.92,167.87 286.64,182.40 C282.83,192.91 278.16,199.83 268.00,210.04 C260.60,217.47 256.70,220.51 250.39,223.77 C233.77,232.35 222.52,232.97 202.14,226.46 C199.89,225.74 199.84,225.82 201.11,228.10 C203.13,231.73 202.82,246.33 200.59,253.00 C195.05,269.55 180.70,283.24 164.47,287.47 C157.51,289.28 146.31,289.32 140.00,287.57 ZM 160.50 270.92 C167.30,268.37 176.54,260.13 180.20,253.33 C181.63,250.67 183.32,245.92 183.96,242.78 C185.14,237.01 184.97,234.41 182.41,219.12 C181.63,214.51 181.00,209.00 181.00,206.87 C181.00,203.44 181.28,203.00 183.43,203.00 C184.76,203.00 186.56,202.30 187.42,201.44 C188.84,200.02 189.19,200.02 191.21,201.44 C192.44,202.30 194.16,203.00 195.04,203.00 C195.91,203.00 197.95,204.39 199.56,206.09 C206.05,212.92 216.60,215.75 227.24,213.52 C233.62,212.18 241.86,208.61 247.15,204.87 C248.90,203.64 251.54,203.00 254.83,203.00 C261.52,203.00 263.40,201.17 262.55,195.49 C262.00,191.81 262.36,190.63 265.48,185.90 C271.12,177.34 273.29,170.65 273.40,161.50 C273.49,154.50 273.12,152.75 270.50,147.50 C266.49,139.48 262.90,137.14 250.50,134.44 L 247.50 133.78 L 250.00 132.83 C253.20,131.61 256.80,128.24 258.60,124.80 C260.62,120.91 260.39,111.17 258.20,107.55 C256.47,104.71 256.47,104.53 258.21,102.79 C259.80,101.20 259.94,99.78 259.40,90.75 C258.43,74.26 256.39,69.33 248.15,63.54 C244.02,60.63 243.38,60.50 233.59,60.50 C223.52,60.50 223.20,60.57 214.58,64.85 C207.70,68.26 204.09,70.91 197.82,77.18 L 189.83 85.17 L 190.25 78.34 C190.49,74.58 191.29,67.79 192.04,63.25 C195.01,45.31 189.19,28.71 177.91,22.96 C171.80,19.84 162.78,20.27 155.23,24.05 C139.61,31.85 128.27,51.59 127.24,72.75 L 126.74 83.00 L 122.52 83.00 L 118.29 83.00 L 117.72 73.75 C116.85,59.74 113.09,51.07 105.79,46.25 C100.60,42.81 91.80,42.63 84.66,45.81 C74.64,50.28 64.54,61.34 58.16,74.83 L 55.22 81.04 L 53.18 77.57 C49.70,71.69 44.53,69.83 29.98,69.24 C21.35,68.89 16.69,69.10 15.19,69.90 C13.01,71.06 13.00,71.24 13.00,100.84 C13.00,122.65 13.32,130.92 14.20,131.80 C14.93,132.53 18.50,133.00 23.37,133.00 C34.34,133.00 35.00,132.31 35.00,120.85 L 35.00 112.00 L 38.25 111.98 C40.04,111.97 43.46,111.07 45.86,109.98 C48.26,108.89 50.45,108.00 50.72,108.00 C51.00,108.00 50.93,110.44 50.55,113.42 C49.21,124.15 52.76,129.80 64.43,135.51 C69.23,137.86 70.90,138.19 75.58,137.70 C81.64,137.08 89.66,133.74 92.00,130.86 C93.45,129.08 93.67,129.10 98.42,131.51 C101.13,132.88 104.05,134.01 104.92,134.02 C105.79,134.02 102.45,135.84 97.50,138.06 C88.95,141.88 88.37,142.01 85.85,140.54 C82.31,138.49 72.17,138.49 69.22,140.56 C67.44,141.81 67.00,143.08 67.00,147.06 C67.00,151.89 66.94,152.00 63.97,152.00 C57.11,152.00 50.86,156.81 49.46,163.17 C49.09,164.86 47.07,169.45 44.97,173.37 C35.94,190.24 37.92,208.28 50.27,221.67 C55.72,227.59 59.99,229.64 75.00,233.56 C95.88,239.02 102.80,242.90 121.85,259.82 C128.84,266.03 134.79,270.46 137.35,271.37 C143.60,273.59 153.90,273.38 160.50,270.92 ZM 184.91 149.50 C183.83,147.30 181.59,142.86 179.93,139.63 C178.27,136.39 177.05,133.63 177.21,133.47 C178.44,132.31 190.08,132.95 193.24,134.35 C203.19,138.78 212.77,138.54 223.57,133.60 C228.43,131.37 229.14,131.29 232.67,132.55 C234.78,133.30 238.30,133.96 240.50,134.03 C244.50,134.14 244.50,134.14 238.50,135.91 C227.29,139.20 221.96,142.20 213.84,149.81 L 210.17 153.24 L 198.52 153.37 L 186.87 153.50 L 184.91 149.50 Z" fill="rgb(253,253,253)"/>
</g>
</svg>